<?xml version="1.0" encoding="UTF-8" standalone="no"?>
<!DOCTYPE svg PUBLIC "-//W3C//DTD SVG 1.1//EN" "http://www.w3.org/Graphics/SVG/1.1/DTD/svg11.dtd">
<svg width="100%" height="100%" viewBox="0 0 470 470" version="1.1" xmlns="http://www.w3.org/2000/svg" xmlns:xlink="http://www.w3.org/1999/xlink" xml:space="preserve" xmlns:serif="http://www.serif.com/" style="fill-rule:evenodd;clip-rule:evenodd;stroke-linejoin:round;stroke-miterlimit:2;">
    <g transform="matrix(1.13346,0,0,1.13346,-122.188,-26.4413)">
        <circle cx="315.096" cy="230.586" r="207.295" style="fill:white;"/>
    </g>
    <g id="Calque_2">
        <g id="Calque_1-2">
            <path d="M152.43,362.41C162.25,363.18 171.88,363.41 181.22,363.41C204.83,363.41 225.47,360.35 243.6,355.15C260.83,374.58 286.17,384.69 313.97,384.69C333.5,384.69 353.03,380.54 369.97,369.99L300.1,300.1C285.1,318.1 262.63,332.16 232.66,339.61C215.819,343.676 198.545,345.674 181.22,345.56C169.601,345.605 157.988,345.034 146.43,343.85C106.26,339.58 66.62,325.74 29.43,286.96L69.35,229C84.58,246 112.6,260 140.41,268C155.16,272.21 169.85,274.72 182.55,275L184.39,275C198.93,275 212.86,271.25 223.39,264.71C232.77,258.89 239.39,250.83 241.23,241.22L204.05,204C194.953,202.468 185.774,201.467 176.56,201C171,200.58 165.34,200 159.66,199.23C102.88,192 42.8,167.77 40.9,102.31C-21.69,193.79 -12.46,320 68.72,401.16C130.19,462.64 217.49,482.82 296,461.84C231.31,456.74 176.37,423.83 152.43,362.41ZM152.08,216.25C159.54,217.35 167.18,218.25 175.21,218.9C223.92,221.69 223.92,231.14 223.92,235.68C223.92,247.09 205.45,257.1 184.39,257.1L182.94,257.1C170.64,256.88 156.6,254.25 142.81,250.1C144.8,238.544 147.905,227.208 152.08,216.25Z" style="fill:rgb(15,52,143);fill-rule:nonzero;"/>
            <path d="M261.79,93.19C238.48,71.19 211.85,63.9 180.55,63.9C141.93,63.9 120.62,75.9 120.62,96.52C120.62,117.83 139.93,129.81 181.88,132.52C195.203,133.307 208.476,134.773 221.65,136.91C259.29,143.22 295.74,157.44 312.58,191.79C318.71,204.28 322.38,219.28 322.38,237.72C322.564,260.488 314.667,282.6 300.1,300.1L370,370C375.756,366.423 381.081,362.195 385.87,357.4L415.08,385.89C492.54,293.65 487.94,155.42 401.18,68.7C354.718,22.222 290.796,-2.651 225.14,0.2C255.25,5.5 281.32,17.34 307.07,39.92L261.79,93.19ZM432.5,163.66L381.23,217.59C367.627,205.329 350.961,196.967 333,193.39C318.46,153.39 284.11,134.22 250.38,124.67C270.959,118.184 292.423,114.938 314,115.05C360.58,115.05 396.54,128.37 432.5,163.66Z" style="fill:rgb(53,58,64);fill-rule:nonzero;"/>
            <path d="M240.61,226.85C237.15,214.85 225.69,207.85 204.05,204.03L241.22,241.21C241.596,239.39 241.793,237.538 241.81,235.68C241.829,232.695 241.425,229.722 240.61,226.85Z" style="fill:rgb(53,58,64);fill-rule:nonzero;"/>
        </g>
    </g>
</svg>
