<svg width="30" height="30" viewBox="0 0 30 30" fill="none" xmlns="http://www.w3.org/2000/svg">
<g clip-path="url(#clip0)">
<path d="M28.8246 15.3971H22.9765C22.8925 14.6836 22.7279 13.9946 22.4917 13.3394H28.9153C29.3988 13.3394 29.7923 12.9503 29.7975 12.4668C29.874 5.50635 24.2555 0 17.4787 0C16.9914 0 16.5964 0.395059 16.5964 0.882353V7.61894C15.9544 7.40935 15.2823 7.26759 14.5881 7.20224V3.87529C14.5881 3.388 14.1931 2.99294 13.7058 2.99294C6.24242 2.99294 0.20166 9.03235 0.20166 16.4965C0.20166 23.9595 6.24172 30 13.7058 30C16.6934 30 19.5247 29.0438 21.8936 27.2348C22.2833 26.9372 22.3548 26.3796 22.0558 25.9934L20.0215 23.3652C20.6258 22.8091 21.1568 22.1745 21.5982 21.4776L24.138 24.7589C24.4349 25.1424 24.9857 25.2145 25.3713 24.92C28.087 22.8459 29.6672 19.7004 29.7069 16.2896C29.7125 15.7984 29.3156 15.3971 28.8246 15.3971ZM18.3611 1.80076C23.4445 2.21824 27.6401 6.29582 28.0075 11.5746H21.6354C20.8219 10.2686 19.6954 9.177 18.3611 8.40612V1.80076ZM20.0965 26.3452C18.196 27.5845 16.0042 28.2353 13.7058 28.2353C7.23266 28.2353 1.96637 22.9693 1.96637 16.4965C1.96637 10.3204 6.76072 5.24288 12.8234 4.79041V7.20212C8.08754 7.648 4.36919 11.6458 4.36919 16.4964C4.36919 21.6444 8.55737 25.8326 13.7054 25.8326C15.506 25.8326 17.1888 25.3196 18.6165 24.4331L20.0965 26.3452ZM13.7054 24.0679C9.53043 24.0679 6.1339 20.6714 6.1339 16.4964C6.1339 12.3214 9.53043 8.92488 13.7054 8.92488C17.8803 8.92488 21.2768 12.3214 21.2768 16.4964C21.2768 20.6714 17.8803 24.0679 13.7054 24.0679ZM24.9721 22.9534L22.4683 19.7186C22.7657 18.9124 22.9545 18.0542 23.0176 17.1618H27.8896C27.6511 19.3889 26.6221 21.4318 24.9721 22.9534Z" fill="inherit"/>
<path d="M14.6527 15.614H12.7577C12.3059 15.614 11.9383 15.2465 11.9383 14.7946C11.9383 14.3413 12.3052 13.9752 12.7575 13.9752C12.7618 13.9752 12.7661 13.9752 12.7703 13.9752H14.585C14.9088 13.9785 15.229 14.1239 15.4639 14.3746C15.7972 14.7301 16.3555 14.7483 16.7111 14.415C17.0666 14.0817 17.0848 13.5234 16.7516 13.1678C16.1614 12.5381 15.3532 12.2106 14.5875 12.2106V11.4419C14.5875 10.9546 14.1925 10.5596 13.7052 10.5596C13.2179 10.5596 12.8228 10.9546 12.8228 11.4419V12.2106C11.2321 12.2106 10.1736 13.4399 10.1736 14.7946C10.1736 16.2196 11.3328 17.3788 12.7577 17.3788H14.6527C15.1045 17.3788 15.4721 17.7464 15.4721 18.1982C15.4721 18.6338 15.1279 19.0176 14.6401 19.0176H12.6601C12.4315 19.0153 12.1885 18.9328 11.9758 18.7852C11.5754 18.5073 11.0256 18.6069 10.7479 19.0072C10.4701 19.4076 10.5695 19.9573 10.9698 20.2351C11.589 20.6647 12.1552 20.7823 12.8228 20.7823V21.551C12.8228 22.0383 13.2178 22.4333 13.7051 22.4333C14.1924 22.4333 14.5875 22.0383 14.5875 21.551V20.7823C16.1913 20.7823 17.2367 19.541 17.2367 18.1982C17.2369 16.7733 16.0776 15.614 14.6527 15.614Z" fill="inherit"/>
</g>
<defs>
<clipPath id="clip0">
<rect width="30" height="30" fill="white"/>
</clipPath>
</defs>
</svg>
