<svg width="30" height="30" viewBox="0 0 30 30" fill="none" xmlns="http://www.w3.org/2000/svg">
<path d="M8.11523 14.8242H7.5293C6.88207 14.8242 6.35742 15.3489 6.35742 15.9961C6.35742 16.6433 6.88207 17.168 7.5293 17.168H8.11523C8.76246 17.168 9.28711 16.6433 9.28711 15.9961C9.28711 15.3489 8.76246 14.8242 8.11523 14.8242Z" fill="inherit"/>
<path d="M19.6582 10.1367H12.2168C11.5696 10.1367 11.0449 10.6614 11.0449 11.3086C11.0449 11.9558 11.5696 12.4805 12.2168 12.4805H19.6582C20.3054 12.4805 20.8301 11.9558 20.8301 11.3086C20.8301 10.6614 20.3054 10.1367 19.6582 10.1367Z" fill="inherit"/>
<path d="M17.7767 27.6562H6.35742C5.06508 27.6562 4.01367 26.6048 4.01367 25.3125V4.6875C4.01367 3.39516 5.06508 2.34375 6.35742 2.34375H20.765C22.0573 2.34375 23.1087 3.39516 23.1087 4.6875V11.3086C23.1087 11.9558 23.6334 12.4805 24.2806 12.4805C24.9278 12.4805 25.4525 11.9558 25.4525 11.3086V4.6875C25.4525 2.10281 23.3497 0 20.765 0H6.35742C3.77273 0 1.66992 2.10281 1.66992 4.6875V25.3125C1.66992 27.8972 3.77273 30 6.35742 30H17.7767C18.4239 30 18.9486 29.4754 18.9486 28.8281C18.9486 28.1809 18.4239 27.6562 17.7767 27.6562Z" fill="inherit"/>
<path d="M8.11523 19.5117H7.5293C6.88207 19.5117 6.35742 20.0364 6.35742 20.6836C6.35742 21.3308 6.88207 21.8555 7.5293 21.8555H8.11523C8.76246 21.8555 9.28711 21.3308 9.28711 20.6836C9.28711 20.0364 8.76246 19.5117 8.11523 19.5117Z" fill="inherit"/>
<path d="M19.6582 5.44922H12.2168C11.5696 5.44922 11.0449 5.97387 11.0449 6.62109C11.0449 7.26832 11.5696 7.79297 12.2168 7.79297H19.6582C20.3054 7.79297 20.8301 7.26832 20.8301 6.62109C20.8301 5.97387 20.3054 5.44922 19.6582 5.44922Z" fill="inherit"/>
<path d="M25.0276 21.0911H23.9537C23.4286 21.0911 23.0013 20.6562 23.0013 20.1216V19.9632C23.0013 19.4386 23.4108 19.043 23.9537 19.043H24.9692C25.2676 19.043 25.5763 19.2428 25.5763 19.5771C25.5763 20.2243 26.101 20.749 26.7482 20.749C27.3954 20.749 27.9201 20.2243 27.9201 19.5771C27.9201 18.1727 26.883 17.0007 25.5166 16.7497V15.9961C25.5166 15.3489 24.9919 14.8242 24.3447 14.8242C23.6975 14.8242 23.1728 15.3489 23.1728 15.9961V16.7899C22.5928 16.9268 22.0615 17.216 21.6307 17.6376C21.0031 18.2516 20.6575 19.0776 20.6575 19.9632V20.1216C20.6575 21.9485 22.1362 23.4348 23.9537 23.4348H25.0276C25.5563 23.4348 25.9865 23.8631 25.9865 24.3896V24.9462C25.9865 25.4556 25.5743 25.8398 25.0276 25.8398H23.2824C22.952 25.8398 22.7029 25.6034 22.7029 25.2897C22.7029 24.6425 22.1782 24.1178 21.531 24.1178C20.8838 24.1178 20.3591 24.6425 20.3591 25.2897C20.3591 26.0746 20.6667 26.8072 21.2253 27.3525C21.7484 27.8632 22.4365 28.1546 23.1728 28.181V28.8281C23.1728 29.4754 23.6975 30 24.3447 30C24.9919 30 25.5166 29.4754 25.5166 28.8281V28.1494C27.1285 27.9242 28.3302 26.5983 28.3302 24.9462V24.3896C28.3302 22.5708 26.8487 21.0911 25.0276 21.0911Z" fill="inherit"/>
<path d="M17.3145 21.8555C17.9617 21.8555 18.4863 21.3308 18.4863 20.6836C18.4863 20.0364 17.9617 19.5117 17.3145 19.5117H12.2168C11.5696 19.5117 11.0449 20.0364 11.0449 20.6836C11.0449 21.3308 11.5696 21.8555 12.2168 21.8555H17.3145Z" fill="inherit"/>
<path d="M8.11523 10.1367H7.5293C6.88207 10.1367 6.35742 10.6614 6.35742 11.3086C6.35742 11.9558 6.88207 12.4805 7.5293 12.4805H8.11523C8.76246 12.4805 9.28711 11.9558 9.28711 11.3086C9.28711 10.6614 8.76246 10.1367 8.11523 10.1367Z" fill="inherit"/>
<path d="M20.8301 15.9961C20.8301 15.3489 20.3054 14.8242 19.6582 14.8242H12.2168C11.5696 14.8242 11.0449 15.3489 11.0449 15.9961C11.0449 16.6433 11.5696 17.168 12.2168 17.168H19.6582C20.3054 17.168 20.8301 16.6433 20.8301 15.9961Z" fill="inherit"/>
<path d="M8.11523 5.44922H7.5293C6.88207 5.44922 6.35742 5.97387 6.35742 6.62109C6.35742 7.26832 6.88207 7.79297 7.5293 7.79297H8.11523C8.76246 7.79297 9.28711 7.26832 9.28711 6.62109C9.28711 5.97387 8.76246 5.44922 8.11523 5.44922Z" fill="inherit"/>
</svg>
